<svg width="735" height="718" viewBox="0 0 735 718" fill="none" xmlns="http://www.w3.org/2000/svg">
<path d="M685.708 330.157C685.425 347.598 685.271 365.041 685.233 382.484C685.515 434.014 685.528 485.545 685.271 537.075C670.1 544.917 654.942 553.472 640.117 562.011C549.489 614.244 457.472 664.961 367.229 717.821L49.5971 536.941C48.6362 513.071 49.2965 484.081 49.2824 459.874L49.4186 331.04C62.5408 337.382 78.7076 347.212 91.4612 354.681L91.3944 510.233C180.903 563.682 276.767 613.832 367.229 666.848L642.456 510.549L642.507 354.681L685.708 330.157Z" fill="#FFCC33"/>
<path d="M468.237 57.7792L375.45 5.0194C368.988 1.24381 375.45 5.01931 367.229 0.0864258L98.3975 154.133C113.418 162.232 128.989 170.763 143.478 179.79C166.449 165.082 363.555 49.4936 367.229 50.2374C411.766 74.3439 458.307 102.543 502.446 127.833C527.316 142.083 568.295 164.215 590.595 179.853C604.598 170.834 620.167 162.469 634.76 154.292C468.237 57.7792 521.111 88.2512 468.237 57.7792Z" fill="#FFCC33"/>
<path d="M653.619 163.996C676.574 170.318 711.182 177.534 734.819 182.25C725.865 208.907 718.08 236.707 709.268 263.473C705.144 276.02 700.147 294.527 694.482 306.091C671.012 318.919 647.632 331.902 624.342 345.039L624.355 379.744C593.563 395.783 557.736 413.727 526.237 428.087C500.378 413.936 474.622 399.608 448.968 385.106L423.482 371.278C437.15 390.183 462.045 435.275 475.38 457.474C441.749 515.704 401.206 572.793 367.229 630.674C352.696 609.482 337.198 583.973 323.366 561.981C301.423 527.413 279.794 492.649 258.476 457.692C269.551 435.432 295.756 394.392 309.482 371.428C275.884 390.185 240.817 410.33 206.902 428.228C175.463 412.246 141.284 396.73 110.582 379.855C110.064 368.289 109.691 356.716 109.464 345.141C87.0933 331.748 61.632 318.482 38.6763 305.624C28.2106 266.387 11.3867 223.032 0 182.454C25.6227 176.886 51.1826 171.029 76.6717 164.881C79.5929 164.48 81.9209 164.583 84.5608 166.077C158.054 207.638 232.741 248.136 305.604 290.713C320.88 281.746 352.377 262.557 367.614 255.606C387.384 266.992 408.118 278.473 427.297 290.7L567.948 211.462C595.002 196.206 626.09 177.735 653.619 163.996ZM324.477 520.506C329.564 530.361 336.529 540.62 342.564 550.103C355.528 550.092 369.721 550.333 382.027 550.103H390.249C394.077 543.86 404.752 526.842 408.336 520.506C382.271 520.478 350.786 520.506 324.477 520.506ZM444.511 453.09C405.87 453.09 321.431 452.434 288.302 453.09C286.658 455.556 286.658 455.557 285.014 458.023C292.413 470.355 292.414 470.356 300.917 484.003L431.819 483.823C433.925 480.748 431.819 483.822 438.152 474.187C444.51 462.956 444.511 462.956 447.414 457.819C446.155 455.557 446.155 455.556 444.511 453.09ZM402.093 379.114C391.007 386.009 378.43 394.128 367.229 400.473C359.272 395.662 338.59 382.888 331.412 379.412C323.81 391.542 316.513 403.861 309.529 416.357C346.943 416.403 386.999 417.129 424.201 416.153L402.093 379.114ZM78.6082 186.934C61.8521 191.063 45.0148 194.853 28.1072 198.3C37.1572 229.508 48.6792 260.746 57.5905 291.549C77.7201 302.474 99.3358 313.082 118.94 324.835C135.633 331.204 206.497 344.567 206.497 344.567C206.649 344.561 225.463 343.824 260.778 343.186C260.588 343.269 227.355 357.775 189.494 376.634L288.302 354.432L280.903 358.543C262.535 369.579 225.553 390.069 206.497 399.185C183.787 389.671 158.336 374.837 135.383 364.298C135.244 361.378 135.1 359.105 134.954 357.305L134.561 344.48L132.094 344.567C132.094 361.009 132.035 360.54 132.094 367.587C155.328 379.042 183.65 391.377 206.224 403.421C228.737 391.042 267.716 371.14 288.176 358.09L303.543 349.501L304.185 316.687L296.524 311.681C246.868 281.835 195.129 253.544 144.924 224.528C124.449 212.695 98.0893 199.367 78.6082 186.934ZM655.7 186.965C603.737 216.672 551.621 246.115 499.35 275.291C479.195 286.726 449.251 302.676 430.354 315.058L430.277 349.308C434.825 351.996 439.501 354.857 444.074 357.434C445.939 358.899 465.27 369.386 468.019 370.891L527.47 403.198L602.363 367.587V344.567C593.82 344.673 576.054 344.567 562.9 344.567C585.097 346.211 585.098 346.211 599.896 347.033L599.074 364.298C581.026 372.927 543.451 393.059 527.175 399.166L478.154 372.332C470.476 368.167 446.262 354.493 446.155 354.432L483.974 362.654C484.113 362.686 525.618 372.215 546.804 377.106L496.306 352.788L473.697 343.577C484.469 343.559 527.42 343.577 527.47 343.577L617.162 324.835C617.266 324.777 660.741 300.788 676.562 291.007C686.299 261.167 697.745 228.277 706.467 198.417C689.858 194.862 672.001 191.381 655.7 186.965ZM169.913 344.567C160.048 344.567 150.802 344.603 141.475 344.594L132.094 344.567C132.094 344.567 134.448 343.965 134.561 344.48L134.954 357.305C134.922 355.25 134.802 352.095 134.561 347.033C148.537 346.211 148.538 346.211 169.913 344.567ZM656.419 190.682C666.259 193.949 691.232 198.522 702.369 200.813C699.145 211.108 695.33 221.894 691.887 232.176C672.246 241.369 672.554 240.994 653.336 250.842C673.491 245.927 673.184 245.909 688.637 241.369C685.49 254.283 677.692 276.918 673.183 289.561C653.452 299.818 633.938 310.476 614.644 321.53C570.685 320.346 526.147 322.301 482.278 321.184C524.426 304.05 571.532 290.449 613.744 273.155C622.904 265.734 631.459 257.614 639.36 248.871L500.571 295.101C478.925 302.268 457.639 308.622 436.289 316.614C456.676 302.052 495.252 281.644 517.849 268.953L656.419 190.682ZM78.0559 190.896C148.194 231.475 219.067 270.97 289.125 311.681C291.591 313.114 288.748 311.462 298.168 316.614C231.948 295.186 160.264 271.132 94.2788 248.989C106.609 261.529 108.252 263.174 115.651 270.573C122.886 273.816 148.281 283.889 162.138 288.778C191.513 299.141 223.437 310.131 252.581 321.188C208.656 321.508 164.729 321.525 120.803 321.24C116.486 320.103 70.6152 294.566 61.4074 289.868C55.9106 276.693 50.0771 255.758 45.8893 241.657C55.1513 244.753 73.2877 248.344 83.3822 250.655L42.4659 232.175C38.7161 221.808 35.4721 211.544 32.1296 201.039C47.4213 197.578 62.7295 194.197 78.0559 190.896ZM282.083 132.939C320.366 153.006 320.367 153.007 340.242 189.976C348.352 186.116 359.29 180.002 367.229 175.204C375.54 180.63 384.237 184.932 392.882 189.898C414.091 153.006 414.092 153.006 451.293 133.225L451.023 157.001C423.186 171.826 451.023 157.002 423.135 171.916C415.736 182.603 415.735 182.603 405.703 197.052C414.181 203.191 424.034 208.726 433.257 213.654L433.245 260.839L419.975 269.568C405.587 260.859 381 245.474 366.317 238.903C348.594 248.882 331.023 259.138 313.616 269.664C309.162 266.211 304.916 263.706 300.114 260.764L300.094 213.765C307.416 210.363 320.597 201.884 327.961 197.421L312.967 171.916C302.724 166.931 291.973 162.314 281.981 156.844C281.703 149.223 281.996 140.634 282.083 132.939Z" fill="#FFCC33"/>
</svg>
