<svg width="1761" height="518" viewBox="0 0 1761 518" fill="none" xmlns="http://www.w3.org/2000/svg">
<path d="M1197.32 200.329C1211.01 200.329 1222.89 202.524 1232.96 206.915C1243.04 211.306 1251.43 217.634 1258.15 225.899C1264.86 233.906 1270.03 243.464 1273.64 254.57C1277.26 265.677 1279.33 277.945 1279.84 291.376C1280.1 295.767 1280.23 300.288 1280.23 304.937C1280.23 309.586 1280.1 314.236 1279.84 318.885C1279.58 331.799 1277.65 343.811 1274.03 354.917C1270.41 365.765 1265.12 375.321 1258.15 383.586C1251.43 391.593 1243.04 397.921 1232.96 402.57C1222.89 407.22 1211.01 409.546 1197.32 409.546C1183.37 409.546 1171.49 407.091 1161.67 402.184C1151.86 397.018 1143.85 390.302 1137.65 382.037V469.985C1137.65 472.568 1136.75 474.765 1134.94 476.573C1133.39 478.381 1131.2 479.284 1128.35 479.284H1095.42C1092.84 479.284 1090.64 478.381 1088.84 476.573C1087.03 474.765 1086.12 472.568 1086.12 469.985V213.5C1086.12 210.918 1087.03 208.723 1088.84 206.915C1090.64 205.107 1092.84 204.202 1095.42 204.202H1126.03C1128.87 204.202 1131.07 205.107 1132.62 206.915C1134.42 208.723 1135.33 210.918 1135.33 213.5V229C1141.53 220.735 1149.66 213.888 1159.74 208.464C1169.81 203.04 1182.34 200.329 1197.32 200.329ZM1681.5 324.309L1710.56 188.705L1759.76 188.317L1703.97 401.796C1696.22 429.691 1684.86 448.806 1669.88 459.138C1655.16 469.469 1638.62 474.635 1620.29 474.635C1614.09 474.635 1606.47 473.86 1597.43 472.311V426.979C1606.98 427.496 1614.6 427.756 1620.29 427.756C1643.02 427.756 1654.38 417.164 1654.38 395.984V385.137L1592 190.256L1650.89 187.543L1681.5 324.309ZM481.882 130.589C484.723 130.589 486.919 131.494 488.468 133.302C490.276 135.11 491.181 137.305 491.181 139.888V225.899C497.638 218.409 505.646 212.339 515.203 207.689C525.018 202.782 536.899 200.329 550.846 200.329C564.536 200.329 576.418 202.653 586.492 207.302C596.565 211.951 604.959 218.538 611.674 227.062C618.648 235.327 623.943 245.013 627.559 256.119C631.175 267.226 633.112 279.238 633.371 292.152C633.629 296.801 633.757 301.063 633.757 304.937C633.757 308.552 633.629 312.686 633.371 317.335C632.854 330.766 630.787 343.164 627.171 354.528C623.555 365.634 618.39 375.321 611.674 383.586C604.959 391.851 596.565 398.309 586.492 402.958C576.418 407.349 564.536 409.546 550.846 409.546C535.866 409.546 523.339 406.961 513.266 401.796C503.451 396.63 495.315 390.044 488.858 382.037V396.372C488.858 398.955 487.952 401.15 486.144 402.958C484.595 404.766 482.4 405.671 479.559 405.671H448.95C446.367 405.671 444.172 404.766 442.364 402.958C440.556 401.15 439.651 398.955 439.651 396.372V139.888C439.651 137.305 440.556 135.11 442.364 133.302C444.172 131.494 446.367 130.589 448.95 130.589H481.882ZM743.314 236.144C737.436 237.049 732.207 239.057 727.628 242.171C721.171 246.562 716.264 252.504 712.906 259.994C709.806 267.484 708.256 276.266 708.256 286.339V287.503H743.719L743.975 320.046H708.256V323.146C708.515 332.186 710.193 340.581 713.292 348.329C716.65 355.82 721.429 361.891 727.628 366.54C732.543 370.078 738.131 372.268 744.392 373.113L744.678 409.411C718.911 408.29 698.245 400.071 682.684 384.75C665.895 368.219 656.855 344.714 655.564 314.235C655.306 311.652 655.177 308.423 655.177 304.549C655.177 300.417 655.306 297.188 655.564 294.863C656.597 275.492 660.989 258.703 668.738 244.497C676.745 230.291 687.721 219.442 701.668 211.951C713.647 205.297 727.436 201.503 743.034 200.563L743.314 236.144ZM954.126 236.146C948.253 237.052 943.028 239.059 938.452 242.171C931.994 246.562 927.087 252.504 923.729 259.994C920.63 267.484 919.08 276.266 919.08 286.339V287.503H954.531L954.788 320.046H919.08V323.146C919.338 332.186 921.016 340.581 924.116 348.329C927.474 355.82 932.253 361.891 938.452 366.54C943.363 370.076 948.948 372.265 955.205 373.111L955.491 409.411C929.729 408.288 909.068 400.069 893.509 384.75C876.72 368.219 867.679 344.714 866.387 314.235C866.129 311.652 866 308.423 866 304.549C866 300.417 866.129 297.188 866.387 294.863C867.42 275.492 871.813 258.703 879.561 244.497C887.568 230.291 898.546 219.442 912.494 211.951C924.469 205.298 938.253 201.505 953.846 200.564L954.126 236.146ZM1480.61 239.425C1471.28 241.009 1463.75 245.151 1458.03 251.857C1450.54 260.639 1446.4 273.296 1445.63 289.826C1445.37 293.7 1445.24 298.738 1445.24 304.937C1445.24 311.135 1445.37 316.172 1445.63 320.046C1446.4 336.835 1450.54 349.62 1458.03 358.402C1463.96 365.15 1471.83 369.225 1481.65 370.631L1481.95 409.362C1464.68 408.549 1449.87 404.996 1437.49 398.698C1423.55 391.466 1412.83 381.262 1405.34 368.089C1398.1 354.916 1393.97 339.548 1392.94 321.984C1392.68 317.335 1392.55 311.652 1392.55 304.937C1392.55 298.222 1392.68 292.54 1392.94 287.891C1393.97 270.068 1398.23 254.699 1405.72 241.784C1413.47 228.611 1424.32 218.409 1438.27 211.177C1450.19 205.108 1464.2 201.586 1480.31 200.61L1480.61 239.425ZM1496.26 200.46C1513.61 201.161 1528.51 204.731 1540.94 211.177C1555.15 218.409 1566 228.611 1573.49 241.784C1581.23 254.699 1585.62 270.069 1586.66 287.891C1586.91 292.54 1587.05 298.222 1587.05 304.937C1587.05 311.652 1586.92 317.335 1586.66 321.984C1585.62 339.548 1581.36 354.916 1573.87 368.089C1566.64 381.262 1555.92 391.466 1541.71 398.698C1529.63 404.963 1515.03 408.511 1497.9 409.349L1497.6 370.679C1507.58 369.32 1515.57 365.23 1521.57 358.402C1529.06 349.62 1533.19 336.835 1533.97 320.046C1534.23 316.172 1534.35 311.135 1534.35 304.937C1534.35 298.738 1534.23 293.7 1533.97 289.826C1533.19 273.296 1529.06 260.639 1521.57 251.857C1515.36 244.581 1507.03 240.322 1496.56 239.075L1496.26 200.46ZM832.623 349.104C835.205 349.104 837.273 349.88 838.823 351.43C840.63 352.979 841.405 354.917 841.147 357.241C840.889 361.374 838.693 366.41 834.561 372.351C830.687 378.291 825.003 384.104 817.512 389.786C810.022 395.468 800.593 400.248 789.229 404.122C780.689 406.902 771.156 408.612 760.631 409.255L760.343 372.757C763.426 372.241 766.21 371.461 768.696 370.414C773.603 368.089 777.608 365.506 780.708 362.665C783.806 359.824 786.002 357.5 787.293 355.692C789.618 352.593 791.426 350.785 792.717 350.268C794.267 349.493 796.464 349.104 799.305 349.104H832.623ZM1043.45 349.104C1046.03 349.105 1048.1 349.88 1049.65 351.43C1051.45 352.979 1052.23 354.917 1051.97 357.241C1051.71 361.374 1049.52 366.41 1045.38 372.351C1041.51 378.291 1035.83 384.104 1028.34 389.786C1020.85 395.469 1011.42 400.248 1000.06 404.122C991.511 406.904 981.974 408.613 971.443 409.255L971.155 372.759C974.243 372.243 977.032 371.462 979.521 370.414C984.428 368.09 988.431 365.506 991.531 362.665C994.63 359.824 996.825 357.5 998.117 355.692C1000.44 352.593 1002.25 350.784 1003.54 350.268C1005.09 349.493 1007.29 349.104 1010.13 349.104H1043.45ZM1352.78 130.589C1355.36 130.589 1357.56 131.494 1359.37 133.302C1361.18 135.11 1362.08 137.305 1362.08 139.888V396.372C1362.08 398.955 1361.18 401.15 1359.37 402.958C1357.56 404.766 1355.36 405.671 1352.78 405.671H1320.62C1318.04 405.671 1315.84 404.766 1314.04 402.958C1312.23 401.15 1311.33 398.955 1311.33 396.372V139.888C1311.33 137.305 1312.23 135.11 1314.04 133.302C1315.84 131.494 1318.04 130.589 1320.62 130.589H1352.78ZM536.51 241.784C526.179 241.784 517.785 244.11 511.328 248.759C504.871 253.408 499.963 259.348 496.605 266.58C493.247 273.554 491.439 280.916 491.181 288.665C490.923 293.314 490.793 298.351 490.793 303.774C490.793 308.94 490.923 313.848 491.181 318.497C491.698 326.504 493.376 334.382 496.217 342.131C499.317 349.621 504.096 355.821 510.553 360.729C517.269 365.636 525.921 368.089 536.51 368.089C547.617 368.089 556.271 365.765 562.47 361.116C568.669 356.209 573.059 349.879 575.642 342.131C578.483 334.382 580.162 325.859 580.678 316.561C581.195 308.812 581.195 301.063 580.678 293.314C580.162 284.016 578.483 275.493 575.642 267.744C573.059 259.996 568.669 253.796 562.47 249.146C556.271 244.239 547.617 241.784 536.51 241.784ZM1182.98 241.784C1172.39 241.784 1163.74 244.239 1157.02 249.146C1150.57 254.054 1145.79 260.382 1142.69 268.131C1139.85 275.621 1138.17 283.37 1137.65 291.376C1137.39 296.025 1137.27 300.932 1137.27 306.098C1137.27 311.263 1137.39 316.302 1137.65 321.21C1137.91 328.958 1139.72 336.448 1143.08 343.68C1146.43 350.654 1151.34 356.467 1157.8 361.116C1164.26 365.765 1172.65 368.089 1182.98 368.089C1194.09 368.089 1202.74 365.765 1208.94 361.116C1215.14 356.209 1219.53 349.88 1222.12 342.131C1224.96 334.382 1226.64 325.859 1227.15 316.561C1227.67 308.812 1227.67 301.063 1227.15 293.314C1226.64 284.017 1224.96 275.492 1222.12 267.744C1219.53 259.996 1215.14 253.796 1208.94 249.146C1202.74 244.239 1194.09 241.784 1182.98 241.784ZM758.988 200.561C776.376 201.567 791.235 205.878 803.565 213.5C817.771 222.024 828.491 234.036 835.723 249.533C842.955 264.772 846.571 282.466 846.571 302.612V310.747C846.571 313.33 845.668 315.527 843.86 317.335C842.052 319.143 839.725 320.046 836.884 320.046H759.929L759.673 287.503H793.878V286.339C793.878 276.266 792.2 267.484 788.842 259.994C785.484 252.504 780.577 246.562 774.12 242.171C769.759 239.206 764.808 237.243 759.269 236.28L758.988 200.561ZM969.799 200.561C987.193 201.566 1002.06 205.876 1014.39 213.5C1028.6 222.024 1039.31 234.036 1046.55 249.533C1053.78 264.772 1057.4 282.466 1057.4 302.612V310.747C1057.4 313.33 1056.49 315.527 1054.68 317.335C1052.88 319.143 1050.55 320.046 1047.71 320.046H970.741L970.484 287.503H1004.7V286.339C1004.7 276.266 1003.03 267.484 999.667 259.994C996.31 252.504 991.402 246.562 984.945 242.171C980.58 239.203 975.625 237.24 970.081 236.278L969.799 200.561Z" fill="black"/>
<path d="M333.423 290.517C333.286 298.997 333.211 307.479 333.192 315.961C333.329 341.017 333.336 366.074 333.211 391.13C325.834 394.943 318.463 399.103 311.255 403.255C267.187 428.653 222.444 453.314 178.564 479.017L24.1166 391.065C23.6493 379.458 23.9704 365.362 23.9635 353.591L24.0297 290.946C30.4104 294.03 38.2714 298.81 44.4728 302.442L44.4403 378.078C87.9636 404.068 134.577 428.453 178.564 454.232L312.392 378.232L312.417 302.442L333.423 290.517Z" fill="black"/>
<path d="M227.678 158.074L182.561 132.42C179.419 130.584 182.561 132.42 178.563 130.021L47.8452 204.926C55.1491 208.864 62.7203 213.012 69.7655 217.402C80.9352 210.25 176.777 154.045 178.563 154.407C200.219 166.129 222.85 179.84 244.312 192.137C256.405 199.067 276.331 209.828 287.175 217.432C293.983 213.046 301.554 208.979 308.65 205.003C227.678 158.074 253.388 172.891 227.678 158.074Z" fill="black"/>
<path d="M317.82 209.721C328.982 212.795 345.809 216.304 357.303 218.597C352.949 231.559 349.164 245.077 344.879 258.092C342.874 264.193 340.444 273.191 337.689 278.815C326.277 285.052 314.909 291.365 303.584 297.753L303.59 314.628C288.618 322.427 271.197 331.152 255.881 338.135C243.307 331.254 230.783 324.287 218.309 317.235L205.916 310.512C212.562 319.704 224.668 341.63 231.151 352.424C214.799 380.738 195.085 408.497 178.563 436.642C171.497 426.337 163.961 413.934 157.235 403.24C146.566 386.431 136.048 369.528 125.683 352.53C131.068 341.706 143.81 321.751 150.485 310.584C134.147 319.705 117.096 329.501 100.605 338.203C85.3181 330.432 68.6987 322.887 53.7701 314.682C53.5184 309.058 53.3366 303.431 53.2267 297.803C42.3488 291.29 29.9683 284.839 18.8062 278.587C13.7173 259.509 5.53676 238.428 0 218.697C12.4589 215.989 24.8873 213.141 37.2813 210.152C38.7017 209.957 39.8337 210.007 41.1173 210.733C76.8532 230.942 113.169 250.634 148.599 271.337C156.027 266.977 171.342 257.646 178.751 254.266C188.364 259.803 198.446 265.385 207.771 271.331L276.163 232.802C289.317 225.383 304.434 216.402 317.82 209.721ZM157.776 383.073C160.249 387.865 163.636 392.854 166.571 397.465C172.874 397.459 179.775 397.576 185.759 397.465H189.757C191.618 394.429 196.809 386.154 198.552 383.073C185.878 383.059 170.568 383.073 157.776 383.073ZM216.141 350.292C197.353 350.292 156.295 349.973 140.186 350.292C139.386 351.492 139.386 351.492 138.587 352.691C142.185 358.687 142.185 358.688 146.32 365.323L209.97 365.236C210.994 363.741 209.97 365.236 213.05 360.55C216.141 355.09 216.142 355.09 217.553 352.592C216.941 351.492 216.941 351.491 216.141 350.292ZM195.516 314.322C190.126 317.674 184.01 321.622 178.563 324.707C174.695 322.368 164.638 316.157 161.148 314.466C157.451 320.365 153.903 326.355 150.507 332.431C168.7 332.453 188.177 332.806 206.266 332.332L195.516 314.322ZM38.2229 220.875C30.0754 222.883 21.8883 224.726 13.667 226.402C18.0675 241.576 23.6701 256.766 28.0031 271.744C37.7911 277.056 48.3017 282.214 57.8341 287.929C65.9509 291.026 100.408 297.523 100.408 297.523C100.482 297.52 109.631 297.162 126.802 296.852C126.71 296.892 110.551 303.946 92.1406 313.116L140.186 302.32L136.588 304.319C127.656 309.686 109.674 319.648 100.408 324.081C89.3656 319.455 76.9904 312.242 65.8295 307.118C65.7618 305.698 65.6918 304.592 65.621 303.717L65.4297 297.481L64.2304 297.523C64.2304 305.518 64.2017 305.29 64.2304 308.717C75.5275 314.287 89.2991 320.285 100.276 326.141C111.222 320.122 130.176 310.444 140.124 304.099L147.596 299.923L147.909 283.967L144.184 281.533C120.038 267.02 94.8808 253.264 70.4689 239.155C60.5129 233.401 47.6955 226.92 38.2229 220.875ZM318.831 220.89C293.565 235.335 268.223 249.652 242.807 263.838C233.007 269.398 218.446 277.154 209.258 283.175L209.221 299.829C211.432 301.136 213.705 302.527 215.929 303.78C216.836 304.492 226.236 309.591 227.572 310.323L256.48 326.032L292.897 308.717V297.523C288.743 297.575 280.104 297.523 273.708 297.523C284.501 298.323 284.502 298.323 291.697 298.722L291.298 307.118C282.521 311.313 264.251 321.103 256.337 324.072L232.501 311.024C228.767 308.999 216.993 302.35 216.941 302.32L235.33 306.318C235.398 306.334 255.58 310.967 265.881 313.345L241.327 301.521L230.333 297.042C235.571 297.033 256.456 297.042 256.48 297.042L300.092 287.929C300.143 287.901 321.283 276.236 328.975 271.48C333.71 256.97 339.276 240.978 343.517 226.459C335.441 224.73 326.758 223.037 318.831 220.89ZM82.6196 297.523C77.8226 297.523 73.3269 297.541 68.7918 297.536L64.2304 297.523C64.2304 297.523 65.3747 297.231 65.4297 297.481L65.621 303.717C65.6051 302.718 65.5469 301.184 65.4297 298.722C72.2256 298.323 72.2258 298.323 82.6196 297.523ZM319.181 222.697C323.966 224.286 336.109 226.51 341.524 227.623C339.957 232.629 338.101 237.874 336.427 242.874C326.877 247.344 327.027 247.161 317.682 251.95C327.482 249.56 327.333 249.551 334.847 247.344C333.317 253.623 329.525 264.629 327.333 270.777C317.738 275.764 308.25 280.947 298.868 286.322C277.493 285.746 255.837 286.697 234.506 286.153C255 277.822 277.905 271.209 298.431 262.8C302.884 259.191 307.045 255.243 310.886 250.992L243.401 273.471C232.876 276.956 222.525 280.045 212.144 283.931C222.057 276.851 240.815 266.927 251.802 260.756L319.181 222.697ZM37.9544 222.801C72.0587 242.533 106.521 261.737 140.586 281.533C141.785 282.229 140.402 281.426 144.983 283.931C112.784 273.512 77.9276 261.816 45.8427 251.049C51.838 257.146 52.6372 257.946 56.2351 261.544C59.7526 263.121 72.101 268.019 78.839 270.396C93.1225 275.435 108.645 280.779 122.816 286.156C101.458 286.311 80.0986 286.319 58.7398 286.181C56.6407 285.628 34.3364 273.211 29.8591 270.926C27.1863 264.52 24.3498 254.341 22.3135 247.484C26.8171 248.989 35.6358 250.736 40.5442 251.859L20.6489 242.873C18.8255 237.832 17.2482 232.841 15.6229 227.734C23.0584 226.051 30.502 224.407 37.9544 222.801ZM137.162 194.62C155.777 204.378 155.777 204.378 165.441 222.354C169.385 220.477 174.703 217.504 178.563 215.171C182.605 217.81 186.834 219.902 191.037 222.316C201.35 204.377 201.351 204.378 219.44 194.759L219.308 206.32C205.772 213.529 219.308 206.321 205.748 213.572C202.15 218.769 202.15 218.769 197.271 225.795C201.394 228.78 206.185 231.471 210.67 233.867L210.663 256.811L204.211 261.055C197.215 256.821 185.26 249.34 178.12 246.145C169.503 250.997 160.959 255.984 152.494 261.102C150.329 259.423 148.264 258.205 145.929 256.774L145.919 233.921C149.48 232.267 155.889 228.144 159.47 225.974L152.179 213.572C147.198 211.149 141.971 208.903 137.112 206.244C136.977 202.538 137.119 198.362 137.162 194.62Z" fill="black"/>
</svg>
