<svg width="1762" height="518" viewBox="0 0 1762 518" fill="none" xmlns="http://www.w3.org/2000/svg">
<path d="M1197.45 200.329C1211.14 200.329 1223.02 202.524 1233.1 206.915C1243.17 211.306 1251.56 217.634 1258.28 225.899C1264.99 233.906 1270.16 243.464 1273.78 254.57C1277.39 265.677 1279.46 277.945 1279.98 291.376C1280.23 295.767 1280.36 300.288 1280.36 304.937C1280.36 309.586 1280.23 314.236 1279.98 318.885C1279.72 331.799 1277.78 343.811 1274.16 354.917C1270.55 365.765 1265.25 375.321 1258.28 383.586C1251.56 391.593 1243.17 397.921 1233.1 402.57C1223.02 407.22 1211.14 409.546 1197.45 409.546C1183.5 409.546 1171.62 407.091 1161.81 402.184C1151.99 397.018 1143.99 390.302 1137.79 382.037V469.985C1137.79 472.568 1136.88 474.765 1135.08 476.573C1133.53 478.381 1131.33 479.284 1128.49 479.284H1095.55C1092.97 479.284 1090.78 478.381 1088.97 476.573C1087.16 474.765 1086.26 472.568 1086.26 469.985V213.5C1086.26 210.918 1087.16 208.723 1088.97 206.915C1090.78 205.107 1092.97 204.202 1095.55 204.202H1126.16C1129 204.202 1131.2 205.107 1132.75 206.915C1134.56 208.723 1135.46 210.918 1135.46 213.5V229C1141.66 220.735 1149.8 213.888 1159.87 208.464C1169.94 203.04 1182.47 200.329 1197.45 200.329ZM1681.64 324.309L1710.69 188.705L1759.9 188.317L1704.11 401.796C1696.36 429.691 1684.99 448.806 1670.01 459.138C1655.29 469.469 1638.76 474.635 1620.42 474.635C1614.22 474.635 1606.6 473.86 1597.56 472.311V426.979C1607.12 427.496 1614.74 427.756 1620.42 427.756C1643.15 427.756 1654.51 417.164 1654.51 395.984V385.137L1592.14 190.256L1651.03 187.543L1681.64 324.309ZM482.016 130.589C484.857 130.589 487.052 131.494 488.602 133.302C490.41 135.11 491.314 137.305 491.314 139.888V225.899C497.772 218.409 505.779 212.339 515.336 207.689C525.151 202.782 537.032 200.329 550.979 200.329C564.669 200.329 576.552 202.653 586.625 207.302C596.698 211.951 605.092 218.538 611.808 227.062C618.781 235.327 624.076 245.013 627.692 256.119C631.308 267.226 633.246 279.238 633.504 292.152C633.762 296.801 633.891 301.063 633.891 304.937C633.891 308.552 633.762 312.686 633.504 317.335C632.987 330.766 630.921 343.164 627.305 354.528C623.689 365.634 618.523 375.321 611.808 383.586C605.092 391.851 596.698 398.309 586.625 402.958C576.552 407.349 564.669 409.546 550.979 409.546C535.999 409.546 523.473 406.961 513.399 401.796C503.585 396.63 495.448 390.044 488.991 382.037V396.372C488.991 398.955 488.085 401.15 486.277 402.958C484.728 404.766 482.533 405.671 479.692 405.671H449.083C446.5 405.671 444.305 404.766 442.497 402.958C440.689 401.15 439.784 398.955 439.784 396.372V139.888C439.784 137.305 440.689 135.11 442.497 133.302C444.305 131.494 446.5 130.589 449.083 130.589H482.016ZM743.447 236.144C737.569 237.049 732.341 239.057 727.762 242.171C721.304 246.562 716.397 252.504 713.039 259.994C709.94 267.484 708.39 276.266 708.39 286.339V287.503H743.853L744.108 320.046H708.39V323.146C708.648 332.186 710.326 340.581 713.426 348.329C716.784 355.82 721.563 361.891 727.762 366.54C732.676 370.078 738.264 372.268 744.525 373.113L744.812 409.411C719.044 408.29 698.378 400.071 682.817 384.75C666.029 368.219 656.989 344.714 655.697 314.235C655.439 311.652 655.311 308.423 655.311 304.549C655.311 300.417 655.439 297.188 655.697 294.863C656.73 275.492 661.122 258.703 668.871 244.497C676.878 230.291 687.854 219.442 701.802 211.951C713.78 205.297 727.569 201.503 743.167 200.563L743.447 236.144ZM954.26 236.146C948.386 237.052 943.161 239.059 938.585 242.171C932.128 246.562 927.22 252.504 923.862 259.994C920.763 267.484 919.213 276.266 919.213 286.339V287.503H954.664L954.921 320.046H919.213V323.146C919.471 332.186 921.15 340.581 924.249 348.329C927.607 355.82 932.386 361.891 938.585 366.54C943.497 370.076 949.081 372.265 955.338 373.111L955.624 409.411C929.862 408.288 909.201 400.069 893.643 384.75C876.854 368.219 867.812 344.714 866.521 314.235C866.262 311.652 866.134 308.423 866.134 304.549C866.134 300.417 866.262 297.188 866.521 294.863C867.554 275.492 871.946 258.703 879.694 244.497C887.701 230.291 898.679 219.442 912.627 211.951C924.602 205.298 938.387 201.505 953.979 200.564L954.26 236.146ZM1480.75 239.425C1471.41 241.009 1463.88 245.151 1458.16 251.857C1450.67 260.639 1446.54 273.296 1445.76 289.826C1445.5 293.7 1445.38 298.738 1445.38 304.937C1445.38 311.135 1445.5 316.172 1445.76 320.046C1446.54 336.835 1450.67 349.62 1458.16 358.402C1464.09 365.15 1471.96 369.225 1481.78 370.631L1482.08 409.362C1464.82 408.549 1450 404.996 1437.63 398.698C1423.68 391.466 1412.96 381.262 1405.47 368.089C1398.24 354.916 1394.1 339.548 1393.07 321.984C1392.81 317.335 1392.68 311.652 1392.68 304.937C1392.68 298.222 1392.81 292.54 1393.07 287.891C1394.1 270.068 1398.37 254.699 1405.86 241.784C1413.61 228.611 1424.45 218.409 1438.4 211.177C1450.32 205.108 1464.34 201.587 1480.44 200.61L1480.75 239.425ZM1496.39 200.46C1513.75 201.161 1528.64 204.731 1541.07 211.177C1555.28 218.409 1566.13 228.611 1573.62 241.784C1581.37 254.699 1585.76 270.069 1586.79 287.891C1587.05 292.54 1587.18 298.222 1587.18 304.937C1587.18 311.652 1587.05 317.335 1586.79 321.984C1585.76 339.548 1581.5 354.916 1574.01 368.089C1566.77 381.262 1556.05 391.466 1541.85 398.698C1529.76 404.963 1515.16 408.511 1498.04 409.349L1497.73 370.679C1507.71 369.32 1515.7 365.23 1521.7 358.402C1529.19 349.62 1533.33 336.835 1534.1 320.046C1534.36 316.172 1534.49 311.135 1534.49 304.937C1534.49 298.738 1534.36 293.7 1534.1 289.826C1533.33 273.296 1529.19 260.639 1521.7 251.857C1515.49 244.581 1507.16 240.322 1496.7 239.075L1496.39 200.46ZM832.756 349.104C835.339 349.104 837.406 349.88 838.956 351.43C840.764 352.979 841.539 354.917 841.28 357.241C841.022 361.374 838.827 366.41 834.694 372.351C830.82 378.291 825.136 384.104 817.646 389.786C810.155 395.468 800.727 400.248 789.362 404.122C780.822 406.902 771.29 408.612 760.765 409.255L760.477 372.757C763.559 372.241 766.343 371.461 768.829 370.414C773.737 368.089 777.741 365.506 780.841 362.665C783.94 359.824 786.135 357.5 787.427 355.692C789.751 352.593 791.559 350.785 792.851 350.268C794.4 349.493 796.598 349.104 799.438 349.104H832.756ZM1043.58 349.104C1046.16 349.105 1048.23 349.88 1049.78 351.43C1051.59 352.979 1052.36 354.917 1052.11 357.241C1051.85 361.374 1049.65 366.41 1045.52 372.351C1041.64 378.291 1035.96 384.104 1028.47 389.786C1020.98 395.469 1011.55 400.248 1000.19 404.122C991.645 406.904 982.107 408.613 971.576 409.255L971.288 372.759C974.376 372.243 977.165 371.462 979.654 370.414C984.562 368.09 988.565 365.506 991.664 362.665C994.763 359.824 996.958 357.5 998.25 355.692C1000.57 352.593 1002.38 350.784 1003.68 350.268C1005.23 349.493 1007.42 349.104 1010.26 349.104H1043.58ZM1352.91 130.589C1355.5 130.589 1357.69 131.494 1359.5 133.302C1361.31 135.11 1362.21 137.305 1362.21 139.888V396.372C1362.21 398.955 1361.31 401.15 1359.5 402.958C1357.69 404.766 1355.5 405.671 1352.91 405.671H1320.76C1318.17 405.671 1315.98 404.766 1314.17 402.958C1312.36 401.15 1311.46 398.955 1311.46 396.372V139.888C1311.46 137.305 1312.36 135.11 1314.17 133.302C1315.98 131.494 1318.17 130.589 1320.76 130.589H1352.91ZM536.644 241.784C526.312 241.784 517.918 244.11 511.461 248.759C505.004 253.408 500.096 259.348 496.738 266.58C493.381 273.554 491.573 280.916 491.314 288.665C491.056 293.314 490.927 298.351 490.927 303.774C490.927 308.94 491.056 313.848 491.314 318.497C491.831 326.504 493.509 334.382 496.351 342.131C499.45 349.621 504.229 355.821 510.687 360.729C517.402 365.636 526.054 368.089 536.644 368.089C547.75 368.089 556.405 365.765 562.604 361.116C568.802 356.209 573.192 349.879 575.775 342.131C578.616 334.382 580.295 325.859 580.812 316.561C581.328 308.812 581.328 301.063 580.812 293.314C580.295 284.016 578.616 275.493 575.775 267.744C573.193 259.996 568.802 253.796 562.604 249.146C556.404 244.239 547.75 241.784 536.644 241.784ZM1183.12 241.784C1172.53 241.784 1163.87 244.239 1157.16 249.146C1150.7 254.054 1145.92 260.382 1142.82 268.131C1139.98 275.621 1138.3 283.37 1137.79 291.376C1137.53 296.025 1137.4 300.932 1137.4 306.098C1137.4 311.263 1137.53 316.302 1137.79 321.21C1138.04 328.958 1139.85 336.448 1143.21 343.68C1146.57 350.654 1151.48 356.467 1157.93 361.116C1164.39 365.765 1172.78 368.089 1183.12 368.089C1194.22 368.089 1202.88 365.765 1209.08 361.116C1215.27 356.209 1219.67 349.88 1222.25 342.131C1225.09 334.382 1226.77 325.859 1227.29 316.561C1227.8 308.812 1227.8 301.063 1227.29 293.314C1226.77 284.017 1225.09 275.492 1222.25 267.744C1219.67 259.996 1215.27 253.796 1209.08 249.146C1202.88 244.239 1194.22 241.784 1183.12 241.784ZM759.121 200.561C776.509 201.567 791.369 205.878 803.698 213.5C817.904 222.024 828.624 234.036 835.856 249.533C843.088 264.772 846.704 282.466 846.704 302.612V310.747C846.704 313.33 845.801 315.527 843.993 317.335C842.185 319.143 839.859 320.046 837.018 320.046H760.062L759.807 287.503H794.012V286.339C794.012 276.266 792.333 267.484 788.976 259.994C785.618 252.504 780.71 246.562 774.253 242.171C769.892 239.206 764.941 237.243 759.402 236.28L759.121 200.561ZM969.933 200.561C987.327 201.566 1002.19 205.876 1014.52 213.5C1028.73 222.024 1039.45 234.036 1046.68 249.533C1053.91 264.772 1057.53 282.466 1057.53 302.612V310.747C1057.53 313.33 1056.62 315.527 1054.82 317.335C1053.01 319.143 1050.68 320.046 1047.84 320.046H970.874L970.617 287.503H1004.84V286.339C1004.84 276.266 1003.16 267.484 999.801 259.994C996.443 252.504 991.535 246.562 985.078 242.171C980.714 239.203 975.759 237.24 970.214 236.278L969.933 200.561Z" fill="black"/>
<path d="M333.801 290.862L333.588 391.589L178.766 479.576L24.1431 391.524L24.0562 291.292L44.5224 302.8L44.4899 378.523L178.766 454.763L312.746 378.677L312.771 302.8L333.801 290.862Z" fill="black"/>
<path d="M227.936 158.268L178.765 130.183L47.8989 205.173L69.8441 217.663L178.765 154.597L287.5 217.694L308.999 205.251C227.936 158.268 253.675 173.102 227.936 158.268Z" fill="black"/>
<path d="M318.18 209.975L357.708 218.861L338.073 279.146L303.929 298.106V311.961L256.171 338.534L206.15 310.879L231.414 352.839C209.81 413.215 209.567 413.458 178.766 420.517C146.04 412.241 146.04 412.241 125.825 352.945L150.656 310.952L100.719 338.602L53.2871 315.125V298.156L18.8275 278.919L0 218.96L39.1873 210.22L148.768 271.66L178.954 254.57L208.007 271.654L318.18 209.975ZM149.611 384.007L156.506 403.722L178.655 409.077L200.561 403.722L207.723 384.007L178.766 388.388L149.611 384.007ZM216.138 349.688L178.655 354.069L140.928 349.688L138.494 354.069L144.7 370.62L178.766 375.488L212.487 370.62L218.572 354.069L216.138 349.688ZM195.738 314.694L178.766 325.091L161.331 314.839L148.533 337.031L178.766 341.412L208.682 337.031L195.738 314.694ZM38.2664 221.141L13.6825 226.674C18.0881 241.866 28.035 272.067 28.035 272.067L57.8998 288.271L100.522 297.876C100.596 297.873 126.946 297.204 126.946 297.204C126.854 297.244 92.2453 313.486 92.2453 313.486L140.345 302.679L100.522 324.464L65.9042 307.481L65.504 297.834L64.3033 297.876V309.082L100.39 326.526L140.283 304.459L147.764 300.278L148.077 284.305L70.549 239.442L38.2664 221.141ZM319.194 221.156L209.496 283.511L209.458 300.184L256.772 326.418L293.229 309.082V297.876H274.019L292.029 299.077L291.628 307.481L256.628 324.455L217.187 302.679C217.255 302.694 266.183 313.716 266.183 313.716L230.595 297.395C230.595 297.395 256.747 297.395 256.772 297.395L300.433 288.271C300.484 288.243 329.349 271.803 329.349 271.803L343.907 226.731L319.194 221.156ZM82.7135 297.876H64.3033L65.504 297.834L65.9042 307.481L65.504 299.077L82.7135 297.876ZM319.544 222.965C324.334 224.556 336.49 226.782 341.912 227.897L336.809 243.165L318.043 252.251L335.227 247.64L327.704 271.1L299.208 286.662L234.772 286.493L298.77 263.113L311.239 251.292L212.385 284.269L319.544 222.965ZM37.9975 223.069L145.148 284.269C112.912 273.838 78.0161 262.128 45.8948 251.349C51.8969 257.454 52.697 258.254 56.2989 261.856C59.8205 263.435 72.1829 268.338 78.9286 270.718C93.2282 275.763 108.769 281.113 122.956 286.496C101.574 286.651 80.1896 286.66 58.8066 286.521C56.705 285.967 34.3754 273.536 29.893 271.249L22.3389 247.78L40.5903 252.16L20.6723 243.164L15.6406 228.007L37.9975 223.069ZM137.318 194.856C155.954 204.625 155.954 204.625 165.629 222.621C169.577 220.743 174.902 217.767 178.766 215.431C182.812 218.072 187.046 220.166 191.254 222.584C201.579 204.625 201.579 204.625 219.689 194.995L219.557 206.57C206.006 213.786 219.557 206.57 205.981 213.83C202.379 219.033 202.379 219.033 197.495 226.066C201.623 229.055 206.419 231.749 210.909 234.148L210.903 257.118L204.443 261.367C197.439 257.128 185.47 249.638 178.322 246.439C169.695 251.297 161.142 256.29 152.668 261.414C150.5 259.733 148.433 258.513 146.095 257.081L146.085 234.202C149.65 232.546 156.066 228.419 159.651 226.246L152.352 213.83C147.365 211.404 142.132 209.156 137.268 206.493C137.133 202.783 137.275 198.602 137.318 194.856Z" fill="black"/>
</svg>
